<?xml version="1.0" encoding="UTF-8"?>
<svg width="52px" height="49px" viewBox="0 0 52 49" version="1.1" xmlns="http://www.w3.org/2000/svg" xmlns:xlink="http://www.w3.org/1999/xlink">
    <!-- Generator: Sketch 52.4 (67378) - http://www.bohemiancoding.com/sketch -->
    <title>Fill 6</title>
    <desc>Created with Sketch.</desc>
    <defs>
        <linearGradient x1="78.556004%" y1="95.9319425%" x2="18.0964834%" y2="13.2588196%" id="linearGradient-1">
            <stop stop-color="#CE232A" offset="0%"></stop>
            <stop stop-color="#AD0310" offset="100%"></stop>
        </linearGradient>
    </defs>
    <g id="Page-1" stroke="none" stroke-width="1" fill="none" fill-rule="evenodd">
        <g id="page" transform="translate(-22.000000, -20.000000)" fill="url(#linearGradient-1)">
            <path d="M74,45.7512824 C74,33.1324546 65.1566617,22.599826 53.3781891,20.1016325 L53.3781891,30.6277042 L43.1474904,30.6277042 L43.1474904,20 C31.1088878,22.2927428 22,32.9466747 22,45.7512824 C22,55.8598956 27.6784225,64.6265221 35.990662,69 L43.9192096,60.9163879 C46.5215941,58.173402 48.2221944,56.2992105 49.0220944,55.2959989 C49.8209105,54.2927874 50.3780223,53.4316428 50.6923462,52.7114724 C51.00667,51.9902092 51.1649158,51.2361613 51.1649158,50.447143 C51.1649158,49.4701592 50.850592,48.6986262 50.2208604,48.1325438 C49.5911289,47.5664615 48.7066867,47.2834203 47.5675338,47.2834203 C46.3936968,47.2834203 45.2079373,47.6221955 44.0080874,48.2997458 C42.8104052,48.977296 41.4533934,49.9761363 39.9392196,51.2962666 L34.4038686,44.7622775 C36.3255795,43.0312458 37.9405536,41.7908917 39.2498749,41.0455863 C40.5602801,40.300281 41.9844922,39.7298274 43.524679,39.3353183 C45.0637819,38.941902 46.7936468,38.7430082 48.7153577,38.7430082 C51.1302318,38.7430082 53.2871436,39.1724876 55.1839253,40.0303537 C57.0796231,40.887127 58.5504419,42.1089032 59.5963815,43.6956822 C60.643405,45.2813685 61.1658329,47.0604844 61.1658329,49.0319372 C61.1658329,50.5083411 60.982658,51.8710915 60.617392,53.1223739 C60.2510422,54.3747491 59.6863432,55.604175 58.9200434,56.8139301 C58.1548274,58.0225924 57.1381524,59.2968241 55.8711022,60.6333467 C54.604052,61.9709621 51.9041187,64.5095901 47.7713023,68.2470449 L47.7713023,68.5049512 L60.9067867,68.5049512 C68.7280307,63.985035 74,55.4916143 74,45.7512824" id="Fill-6"></path>
        </g>
    </g>
</svg>